<?xml version="1.0" encoding="iso-8859-1"?>
<!-- Generator: Adobe Illustrator 19.0.0, SVG Export Plug-In . SVG Version: 6.00 Build 0)  -->
<svg version="1.1" id="Layer_1" xmlns="http://www.w3.org/2000/svg" xmlns:xlink="http://www.w3.org/1999/xlink" x="0px" y="0px"
	 viewBox="0 0 512 512" style="enable-background:new 0 0 512 512;" xml:space="preserve">
<path style="fill:#FF6464;" d="M256,23.88c-10.688,0-15.53,10.279-15.53,16.199v40.078h32.063V40.078
	C272.532,34.159,266.688,23.88,256,23.88z"/>
<rect x="240.47" y="40.078" style="fill:#A0D2F0;" width="32.063" height="16.031"/>
<polygon style="fill:#F5EBE1;" points="224.438,111.217 217.299,431.843 295.202,431.843 288.564,111.217 "/>
<polygon style="fill:#FFF5E6;" points="293.552,504.485 216.423,504.485 217.299,431.843 295.202,431.843 "/>
<g>
	<polygon style="fill:#E68C7E;" points="291.893,272.031 291.063,231.953 221.75,231.953 220.857,272.031 	"/>
	<polygon style="fill:#E68C7E;" points="224.438,111.217 288.564,111.217 288.669,87.668 224.606,87.653 	"/>
	<polygon style="fill:#E68C7E;" points="290.234,191.875 289.404,151.796 223.535,151.796 222.643,191.875 	"/>
	<polygon style="fill:#E68C7E;" points="218.099,392.517 217.299,431.843 295.202,431.843 294.387,392.517 	"/>
	<polygon style="fill:#E68C7E;" points="293.552,352.188 292.754,313.613 219.932,313.613 219.073,352.188 	"/>
</g>
<polygon style="fill:#E1D4C8;" points="288.895,127.249 288.564,111.217 224.438,111.217 224.082,127.249 "/>
<path d="M312.11,496.971h-8.66l-7.726-401.785h0.355c4.15,0,7.515-3.365,7.515-7.515c0-4.15-3.365-7.515-7.515-7.515h-16.532v-9.018
	h0.501c4.15,0,7.515-3.365,7.515-7.515s-3.365-7.515-7.515-7.515h-0.501V39.577c0-10.356-6.723-19.165-16.031-22.31V7.515
	C263.515,3.365,260.15,0,256,0c-4.15,0-7.515,3.365-7.515,7.515v9.753c-9.308,3.144-16.031,11.953-16.031,22.31V56.11h-0.501
	c-4.15,0-7.515,3.365-7.515,7.515s3.365,7.515,7.515,7.515h0.501v9.018h-16.532c-4.15,0-7.515,3.365-7.515,7.515
	c0,4.15,3.365,7.515,7.515,7.515h0.356l-7.726,401.785h-8.661c-4.15,0-7.515,3.365-7.515,7.515S195.74,512,199.89,512H312.11
	c4.15,0,7.515-3.365,7.515-7.515S316.26,496.971,312.11,496.971z M226.511,344.673l0.482-25.049h58.014l0.482,25.049H226.511z
	 M256,215.421c4.15,0,7.515-3.365,7.515-7.515v-8.517h19.18l0.482,25.049h-54.354l0.482-25.049h19.18v8.517
	C248.485,212.056,251.85,215.421,256,215.421z M283.466,239.468l0.482,25.049h-55.895l0.482-25.049H283.466z M248.485,279.546v8.517
	c0,4.15,3.365,7.515,7.515,7.515c4.15,0,7.515-3.365,7.515-7.515v-8.517h20.721l0.482,25.049h-57.436l0.482-25.049H248.485z
	 M282.406,184.36h-52.812l0.482-25.049h51.849L282.406,184.36z M226.222,359.703h22.263v8.517c0,4.15,3.365,7.515,7.515,7.515
	c4.15,0,7.515-3.365,7.515-7.515v-8.517h22.263l0.482,25.049h-60.519L226.222,359.703z M281.635,144.282h-51.27l0.482-25.049h50.307
	L281.635,144.282z M225.451,399.781h61.097l0.482,25.049h-62.061L225.451,399.781z M256,31.061c1.445,0,2.805,0.365,3.999,1.002H252
	C253.195,31.425,254.555,31.061,256,31.061z M247.483,47.092h17.033v9.018h-17.033V47.092z M247.483,71.139h17.033v9.018h-17.033
	V71.139z M280.691,95.186l0.173,9.018h-49.729l0.173-9.018H280.691z M224.681,439.859h62.639l1.098,57.112h-24.904v-16.532
	c0-4.15-3.365-7.515-7.515-7.515c-4.15,0-7.515,3.365-7.515,7.515v16.532h-24.904L224.681,439.859z"/>
<g>
</g>
<g>
</g>
<g>
</g>
<g>
</g>
<g>
</g>
<g>
</g>
<g>
</g>
<g>
</g>
<g>
</g>
<g>
</g>
<g>
</g>
<g>
</g>
<g>
</g>
<g>
</g>
<g>
</g>
</svg>
